<svg xmlns="http://www.w3.org/2000/svg" xmlns:xlink="http://www.w3.org/1999/xlink" width="250" zoomAndPan="magnify" viewBox="0 0 187.5 187.499992" height="250" preserveAspectRatio="xMidYMid meet" version="1.0"><defs><clipPath id="733e19cac1"><path d="M 30.351562 3.289062 L 156.765625 3.289062 L 156.765625 183.558594 L 30.351562 183.558594 Z M 30.351562 3.289062 " clip-rule="nonzero"/></clipPath></defs><g clip-path="url(#733e19cac1)"><path fill="#c31635" d="M 93.496094 3.296875 C 58.632812 3.296875 30.351562 31.574219 30.351562 66.4375 C 30.351562 113.796875 93.496094 183.703125 93.496094 183.703125 C 93.496094 183.703125 156.636719 113.796875 156.636719 66.4375 C 156.636719 31.574219 128.359375 3.296875 93.496094 3.296875 Z M 93.496094 88.988281 C 81.046875 88.988281 70.945312 78.886719 70.945312 66.4375 C 70.945312 53.992188 81.046875 43.886719 93.496094 43.886719 C 105.941406 43.886719 116.046875 53.992188 116.046875 66.4375 C 116.046875 78.886719 105.941406 88.988281 93.496094 88.988281 Z M 93.496094 88.988281 " fill-opacity="1" fill-rule="nonzero"/></g></svg>